# xmcd
#
# Track frame offsets: 
#        150
#        10021
#        21307
#        28377
#        37273
#        44166
#        49883
#        55546
#        72416
#        90690
#        104775
#        122931
#        137015
#        147857
#        162846
#        179369
#        189268
#        199126
#        216234
#
# Disc length: 2994 seconds
#
# Revision: 0
# Processed by: cddbd v1.4PL0 Copyright (c) Steve Scherf et al.
# Submitted via: ExactAudioCopy v0.90b4
#
DISCID=250bb013
DTITLE=Johnny Cash - 3-31-86 Wembly Arena, London, England - Disc II
DYEAR=1986
DGENRE=Country
TTITLE0=If I Were A Carpenter
TTITLE1=Jackson
TTITLE2=June Carter Intro
TTITLE3=Wabash Cannonball
TTITLE4=Intro to San Antonio Rose
TTITLE5=San Antonio Rose
TTITLE6=Carter Family Intro
TTITLE7=Elbow Room
TTITLE8=I'll Be All Smiles Tonight
TTITLE9=Foggy Mountain Top
TTITLE10=Will The Circle Be Unbroken
TTITLE11=Wreck Of The Old '97
TTITLE12=A Thing Called Love
TTITLE13=The Ballad Of Ira Hayes
TTITLE14=Were You There When They Crucified My Lord
TTITLE15=Daddy Sang Bass
TTITLE16=Casey Jones
TTITLE17=Orange Blossom Special
TTITLE18=I Walk The Line
EXTD=
EXTT0=
EXTT1=
EXTT2=
EXTT3=
EXTT4=
EXTT5=
EXTT6=
EXTT7=
EXTT8=
EXTT9=
EXTT10=
EXTT11=
EXTT12=
EXTT13=
EXTT14=
EXTT15=
EXTT16=
EXTT17=
EXTT18=
PLAYORDER=
